<svg width="29" height="28" viewBox="0 0 29 28" fill="none" xmlns="http://www.w3.org/2000/svg">
<path d="M24.0063 8.38438H21.2042C21.6051 7.80114 21.8281 7.11399 21.8458 6.40644C21.8618 5.86743 21.7675 5.33085 21.5685 4.82964C21.3696 4.32844 21.0702 3.8732 20.6889 3.4919C20.3076 3.11059 19.8524 2.81127 19.3512 2.61232C18.85 2.41338 18.3134 2.319 17.7744 2.33499C17.2765 2.34562 16.7863 2.45906 16.3343 2.66819C15.8824 2.87733 15.4786 3.17764 15.1483 3.55027C14.9047 3.82819 14.6877 4.12838 14.5002 4.44688C14.3127 4.12838 14.0957 3.82819 13.852 3.55027C13.5217 3.17764 13.1179 2.87733 12.666 2.66819C12.2141 2.45906 11.7238 2.34562 11.2259 2.33499C10.6869 2.319 10.1503 2.41338 9.64913 2.61232C9.14793 2.81127 8.69269 3.11059 8.31139 3.4919C7.93008 3.8732 7.63076 4.32844 7.43182 4.82964C7.23287 5.33085 7.13849 5.86743 7.15448 6.40644C7.17227 7.11399 7.39519 7.80114 7.79615 8.38438H4.99399C4.42099 8.38438 3.87146 8.612 3.46629 9.01717C3.06112 9.42234 2.8335 9.97187 2.8335 10.5449V14.0017C2.83339 14.4997 3.00538 14.9825 3.32034 15.3683C3.6353 15.7542 4.07389 16.0193 4.56189 16.1189V22.6436C4.56189 23.2166 4.78951 23.7662 5.19469 24.1713C5.59986 24.5765 6.14939 24.8041 6.72238 24.8041H22.2779C22.8509 24.8041 23.4005 24.5765 23.8056 24.1713C24.2108 23.7662 24.4384 23.2166 24.4384 22.6436V16.1189C24.9264 16.0193 25.365 15.7542 25.68 15.3683C25.9949 14.9825 26.1669 14.4997 26.1668 14.0017V10.5449C26.1668 9.97187 25.9392 9.42234 25.534 9.01717C25.1289 8.612 24.5793 8.38438 24.0063 8.38438ZM23.5742 13.5696H15.7965V10.977H23.5742V13.5696ZM17.0928 5.27002C17.1884 5.16389 17.3049 5.07869 17.435 5.01975C17.5652 4.96082 17.7061 4.92944 17.8489 4.92759H17.8867C18.0695 4.92707 18.2506 4.96332 18.4191 5.03419C18.5876 5.10506 18.7401 5.2091 18.8676 5.34011C18.9951 5.47113 19.095 5.62645 19.1612 5.79683C19.2275 5.96722 19.2588 6.14918 19.2532 6.33191C19.2514 6.47475 19.22 6.61566 19.1611 6.74579C19.1021 6.87592 19.0169 6.99246 18.9108 7.08808C18.1654 7.74919 16.9394 8.08839 15.9261 8.25042C16.0881 7.24147 16.4273 6.01539 17.0928 5.27002ZM10.1468 5.32728C10.4032 5.07361 10.7486 4.93018 11.1093 4.92759H11.1514C11.2942 4.92944 11.4352 4.96082 11.5653 5.01975C11.6954 5.07869 11.8119 5.16389 11.9076 5.27002C12.5687 6.01539 12.9079 7.24039 13.0688 8.25258C12.0642 8.08947 10.8273 7.75027 10.0895 7.08808C9.98338 6.99246 9.89818 6.87592 9.83925 6.74579C9.78031 6.61566 9.74893 6.47475 9.74708 6.33191C9.7423 6.14612 9.77526 5.9613 9.84396 5.78863C9.91266 5.61595 10.0157 5.459 10.1468 5.32728ZM5.42609 10.977H13.2039V13.5696H5.42609V10.977ZM7.15448 16.1622H13.2039V22.2115H7.15448V16.1622ZM15.7965 22.2115V16.1622H21.8458V22.2115H15.7965Z" fill="#9ED0E0"/>
</svg>
