<svg width="16" height="10" viewBox="0 0 16 10" fill="none" xmlns="http://www.w3.org/2000/svg">
<path d="M2.72064 0.840044L7.89398 6.01338L13.0673 0.840045C13.1908 0.716602 13.3373 0.618683 13.4986 0.551876C13.6599 0.485069 13.8327 0.450684 14.0073 0.450684C14.1819 0.450684 14.3547 0.485069 14.516 0.551876C14.6773 0.618683 14.8239 0.716602 14.9473 0.840045C15.0708 0.963487 15.1687 1.11003 15.2355 1.27132C15.3023 1.43261 15.3367 1.60547 15.3367 1.78004C15.3367 1.95462 15.3023 2.12748 15.2355 2.28877C15.1687 2.45005 15.0708 2.5966 14.9473 2.72004L8.82731 8.84004C8.30731 9.36004 7.46731 9.36004 6.94731 8.84004L0.82731 2.72004C0.703706 2.59669 0.605642 2.45017 0.538734 2.28888C0.471826 2.12758 0.437385 1.95467 0.437386 1.78004C0.437386 1.60542 0.471826 1.43251 0.538734 1.27121C0.605642 1.10991 0.703706 0.963396 0.827311 0.840044C1.34731 0.333377 2.20064 0.320044 2.72064 0.840044Z" fill="white"/>
</svg>
